<?xml version="1.0" encoding="UTF-8"?>
<svg version="1.1" xmlns="http://www.w3.org/2000/svg" viewBox="0 0 350 350" >
  <path d=" M -226.05-210.44 C -201.21-192.3-194.97-156.29-189.74-128.13-189.39-125.8-189.06-123.47-188.74-121.13-188.35-122.08-187.96-123.02-187.57-123.99-158.11-195.85-158.11-195.85-145.74-214.13-143.07-214.65-143.07-214.65-140.11-214.51-138.64-214.46-138.64-214.46-137.14-214.4-134.74-214.13-134.74-214.13-131.9-212-134.07-206.78-136.48-201.94-139.3-196.32-140.31-194.25-141.31-192.19-142.32-190.12-142.87-189-143.42-187.88-143.98-186.73-155.45-163.27-166.19-139.57-175.86-115.31-176.72-113.17-177.59-111.04-178.46-108.9-186.21-89.79-190.91-71.27-193.88-50.87-194.99-43.22-196.56-35.7-198.28-28.16-198.76-26.05-199.21-23.94-199.66-21.82-207.13 12.46-207.36 15.35-213.32 18.14-219.87 20.39-219.72 20.48-223.43 18.33-228.36 14.07-226.27 8.32-225.74 1.87-225.06-2.56-224.09-6.9-223.05-11.26-222.64-13.04-222.64-13.04-222.21-14.87-220.73-21.19-219.2-27.49-217.49-33.76-217.3-34.44-217.12-35.13-216.93-35.84-215.57-40.67-213.94-45.35-212.2-50.06-201.78-79.16-200.89-111.14-208.74-141.13-208.96-142.2-209.19-143.28-209.43-144.38-212.49-157.85-219.76-170.22-230.93-178.44-243.19-185.92-257.55-187.04-271.46-184.44-284.95-180.61-297.65-173.25-305.11-161.07-306.01-159.44-306.89-157.79-307.74-156.13-308.36-154.94-308.36-154.94-308.99-153.72-309.93-151.87-310.84-150-312.18-146.77-313.55-147.32-315.13-147.94-316.26-148.43-317.41-148.87-317.95-149.08-318.92-149.48-320.72-150.24-321.87-150.76-323.96-151.49-324.17-155.62-322.8-160.24-320.68-165.32-320.36-166.06-320.05-166.81-319.74-167.57-314.99-178.56-308.1-187.63-299.74-196.13-298.98-196.9-298.22-197.68-297.44-198.47-278.5-216.61-249.49-225.19-226.05-210.44 Z " fill="#434343" transform="translate(362.6875,248.69140625)"  />
</svg>